<?xml version="1.0" encoding="utf-8"?>
<!-- Generator: Adobe Illustrator 25.2.0, SVG Export Plug-In . SVG Version: 6.00 Build 0)  -->
<svg version="1.1" xmlns="http://www.w3.org/2000/svg" xmlns:xlink="http://www.w3.org/1999/xlink" x="0px" y="0px"
	 viewBox="0 0 1366 768" style="enable-background:new 0 0 1366 768;" xml:space="preserve">
<style type="text/css">
	.st0{fill:#563830;}
	.st1{fill:#C48F5F;}
	.st2{fill:#684E43;}
	.st3{fill:#8E6047;}
	.st4{fill:#603D2D;}
	.st5{fill:#42312B;}
	.st6{fill:#FF9700;stroke:#000000;stroke-miterlimit:10;}
	.st7{fill:#FFFFFF;stroke:#000000;stroke-miterlimit:10;}
	.st8{fill:#BF4419;}
	.st9{fill:none;stroke:#000000;stroke-miterlimit:10;}
</style>
<g id="Layer_3">
	<path class="st0" d="M396,418v153.5c0,18.5,15,33.5,33.5,33.5h0c18.5,0,33.5-15,33.5-33.5V418H396z"/>
	<path class="st1" d="M442,625L442,625c6.1,0,11-4.9,11-11v-43.5c0-3-2.5-5.5-5.5-5.5l0,0c-3,0-5.5,2.5-5.5,5.5V625z"/>
	<path class="st1" d="M425,639L425,639c6.1,0,11-4.9,11-11v-43.5c0-3-2.5-5.5-5.5-5.5l0,0c-3,0-5.5,2.5-5.5,5.5V639z"/>
	<path class="st1" d="M407,625L407,625c6.1,0,11-4.9,11-11v-43.5c0-3-2.5-5.5-5.5-5.5l0,0c-3,0-5.5,2.5-5.5,5.5V625z"/>
	<path class="st0" d="M600,418v153.5c0,18.5,15,33.5,33.5,33.5h0c18.5,0,33.5-15,33.5-33.5V418H600z"/>
	<path class="st1" d="M646,625L646,625c6.1,0,11-4.9,11-11v-43.5c0-3-2.5-5.5-5.5-5.5l0,0c-3,0-5.5,2.5-5.5,5.5V625z"/>
	<path class="st1" d="M629,639L629,639c6.1,0,11-4.9,11-11v-43.5c0-3-2.5-5.5-5.5-5.5l0,0c-3,0-5.5,2.5-5.5,5.5V639z"/>
	<path class="st1" d="M611,625L611,625c6.1,0,11-4.9,11-11v-43.5c0-3-2.5-5.5-5.5-5.5l0,0c-3,0-5.5,2.5-5.5,5.5V625z"/>
</g>
<g id="Layer_2">
	<path class="st2" d="M838,489H89c-12.7,0-23-10.3-23-23v0c0-12.7,10.3-23,23-23h749c12.7,0,23,10.3,23,23v0
		C861,478.7,850.7,489,838,489z"/>
	<path class="st1" d="M347,625L347,625c6.1,0,11-4.9,11-11v-43.5c0-3-2.5-5.5-5.5-5.5l0,0c-3,0-5.5,2.5-5.5,5.5V625z"/>
	<path class="st1" d="M330,639L330,639c6.1,0,11-4.9,11-11v-43.5c0-3-2.5-5.5-5.5-5.5l0,0c-3,0-5.5,2.5-5.5,5.5V639z"/>
	<path class="st1" d="M312,625L312,625c6.1,0,11-4.9,11-11v-43.5c0-3-2.5-5.5-5.5-5.5l0,0c-3,0-5.5,2.5-5.5,5.5V625z"/>
	<path class="st1" d="M530,639L530,639c6.1,0,11-4.9,11-11v-43.5c0-3-2.5-5.5-5.5-5.5l0,0c-3,0-5.5,2.5-5.5,5.5V639z"/>
	<path class="st1" d="M547,625L547,625c6.1,0,11-4.9,11-11v-43.5c0-3-2.5-5.5-5.5-5.5l0,0c-3,0-5.5,2.5-5.5,5.5V625z"/>
	<path class="st1" d="M512,625L512,625c6.1,0,11-4.9,11-11v-43.5c0-3-2.5-5.5-5.5-5.5l0,0c-3,0-5.5,2.5-5.5,5.5V625z"/>
	<path class="st3" d="M694,344.5C694,236,606,182,497.5,182h0C389,182,301,236,301,344.5V418v29v124.5c0,18.5,15,33.5,33.5,33.5h0
		c18.5,0,33.5-15,33.5-33.5v-58c0-36.7,29.8-66.5,66.5-66.5h0c36.7,0,66.5,29.8,66.5,66.5v58c0,18.5,15,33.5,33.5,33.5h0
		c18.5,0,33.5-15,33.5-33.5v-58c0-36.7,29.8-66.5,66.5-66.5H694V344.5z"/>
</g>
<g id="Layer_1">
	<g>
		<path class="st3" d="M814,384c0,67.9-55.1,63-123,63s-123,4.9-123-63s55.1-119,123-119S814,316.1,814,384z"/>
	</g>
	<path class="st1" d="M735.2,320.1c-11.9-0.7-23.1,2.6-32.3,8.6c-6.9,4.6-16,4.6-22.9,0c-9.2-6-20.3-9.3-32.3-8.6
		c-26.3,1.5-47.7,22.6-49.6,48.8C595.8,400,620.4,426,651,426c10.8,0,20.8-3.2,29.1-8.7c6.9-4.5,15.9-4.5,22.7,0
		c8.4,5.5,18.4,8.7,29.1,8.7c30.6,0,55.2-26,52.8-57.1C782.9,342.7,761.5,321.6,735.2,320.1z"/>
	<g>
		<path class="st3" d="M705.7,349L689.2,320l-7.8,4.4C689.8,337.5,699.1,346.8,705.7,349z"/>
	</g>
	<g>
		<path class="st3" d="M675.9,348.6l11.7-31.3l-8.4-3.1C674.6,329,673.4,342.1,675.9,348.6z"/>
	</g>
	<g>
		<path class="st3" d="M707.6,298.2l-11-1.9l-9.8,56.1C692.9,347.7,700.9,326.7,707.6,298.2z"/>
	</g>
	<path class="st3" d="M797.9,391.7l-21.1,29.2c-2,2.8-5.9,3.4-8.7,1.4l-40.2-29c-10.8-7.8-13.3-23-5.5-33.8v0
		c7.8-10.8,23-13.3,33.8-5.5l40.2,29C799.3,385,799.9,388.9,797.9,391.7z"/>
	<path class="st3" d="M595.1,389.7l21.1,29.2c2,2.8,5.9,3.4,8.7,1.4l40.2-29c10.8-7.8,13.3-23,5.5-33.8v0
		c-7.8-10.8-23-13.3-33.8-5.5l-40.2,29C593.7,383,593.1,386.9,595.1,389.7z"/>
	<g>
		<path class="st3" d="M672.4,220.8l5.6,87.5l12.6-0.8C686.8,267,679.7,234.1,672.4,220.8z"/>
	</g>
	<path class="st4" d="M639,373c0-5.5,5-13,10-10c4.7,2.8,8,4.5,8,10s-2.5,10-8,10S639,378.5,639,373z"/>
	<path class="st4" d="M732,373c0-5.5,3.1-7.5,8-10c4-2,10,4.5,10,10s-4.5,10-10,10S732,378.5,732,373z"/>
	<path class="st4" d="M701,387h-15c-3.3,0-6-2.7-6-6l0,0c0-3.3,2.7-6,6-6h15c3.3,0,6,2.7,6,6l0,0C707,384.3,704.3,387,701,387z"/>
	<path class="st5" d="M654.5,364.4l-9.5-5.5c-1.2-0.7-1.6-2.2-0.9-3.4l0,0c0.7-1.2,2.2-1.6,3.4-0.9l9.5,5.5c1.2,0.7,1.6,2.2,0.9,3.4
		l0,0C657.2,364.7,655.7,365.1,654.5,364.4z"/>
	<path class="st5" d="M731.5,366.4l9.5-5.5c1.2-0.7,1.6-2.2,0.9-3.4l0,0c-0.7-1.2-2.2-1.6-3.4-0.9l-9.5,5.5
		c-1.2,0.7-1.6,2.2-0.9,3.4l0,0C728.8,366.7,730.3,367.1,731.5,366.4z"/>
</g>
<g id="Layer_4">
	<g>
		<g>
			<rect x="705.5" y="398.5" class="st6" width="50" height="14"/>
			<rect x="755.5" y="398.5" class="st7" width="148" height="14"/>
			<g>
				<polygon class="st8" points="903.5,397.8 901.5,402.7 903.5,407.8 901.5,413.3 904.2,412 905.8,414 906.5,412.7 908.5,407.8 
					906.5,402.7 908.5,397.2 905.8,398.5 904,396.5 				"/>
				<polygon class="st9" points="903.5,397.8 901.5,402.7 903.5,407.8 901.5,413.3 904.2,412 905.8,414 906.5,412.7 908.5,407.8 
					906.5,402.7 908.5,397.2 905.8,398.5 904,396.5 				"/>
			</g>
		</g>
		<g>
			<path d="M903.6,312.1c-0.3,3.6-0.8,7.1-1.4,10.6c-0.6,3.5-1.1,7-1.8,10.5c-0.7,3.5-1.7,6.9-2.1,10.4c-0.4,3.5-0.4,7.1,0.2,10.6
				c0.3,1.7,0.8,3.4,1.4,4.8c0.1,0.4,0.4,0.7,0.6,1l0.7,1.2c0.5,0.8,0.9,1.7,1.3,2.5c1.5,3.4,2.4,7,2.9,10.6
				c0.5,3.6,0.6,7.2,0.4,10.9c-0.1,1.8-0.3,3.6-0.6,5.4c-0.1,0.9-0.3,1.8-0.6,2.7c-0.2,0.9-0.6,1.8-1.1,2.6l-0.3-0.1
				c0.4-1.7,0.4-3.5,0.4-5.2c0-0.9-0.1-1.8-0.1-2.6l-0.2-2.6c-0.3-3.5-0.7-7-1.2-10.4c-0.6-3.4-1.2-6.8-2.4-10
				c-0.3-0.8-0.6-1.6-1-2.3l-0.6-1.1c-0.2-0.5-0.5-0.9-0.6-1.4c-0.6-1.9-0.8-3.8-0.8-5.6c0-3.7,0.3-7.2,0.5-10.8
				c0.2-3.6,0.2-7.2,0.6-10.8c0.2-1.8,0.5-3.6,0.8-5.3c0.3-1.8,0.7-3.5,1.2-5.2c0.9-3.5,1.9-6.9,3.4-10.2L903.6,312.1z"/>
		</g>
		<g>
			<path d="M908.9,312.4c-0.3,3.6-0.8,7.1-1.4,10.6c-0.6,3.5-1.1,7-1.8,10.5c-0.7,3.5-1.7,6.9-2.1,10.4c-0.4,3.5-0.4,7.1,0.2,10.6
				c0.3,1.7,0.8,3.4,1.4,4.8c0.1,0.4,0.4,0.7,0.6,1l0.7,1.2c0.5,0.8,0.9,1.7,1.3,2.5c1.5,3.4,2.4,7,2.9,10.6
				c0.5,3.6,0.6,7.2,0.4,10.9c-0.1,1.8-0.3,3.6-0.6,5.4c-0.1,0.9-0.3,1.8-0.6,2.7c-0.2,0.9-0.6,1.8-1.1,2.6l-0.3-0.1
				c0.4-1.7,0.4-3.5,0.4-5.2c0-0.9-0.1-1.8-0.1-2.6l-0.2-2.6c-0.3-3.5-0.7-7-1.2-10.4c-0.6-3.4-1.2-6.8-2.4-10
				c-0.3-0.8-0.6-1.6-1-2.3l-0.6-1.1c-0.2-0.5-0.5-0.9-0.6-1.4c-0.6-1.9-0.8-3.8-0.8-5.6c0-3.7,0.3-7.2,0.5-10.8
				c0.2-3.6,0.2-7.2,0.6-10.8c0.2-1.8,0.5-3.6,0.8-5.3c0.3-1.8,0.7-3.5,1.2-5.2c0.9-3.5,1.9-6.9,3.4-10.2L908.9,312.4z"/>
		</g>
	</g>
	<circle class="st1" cx="715" cy="404" r="17"/>
</g>
</svg>
