<?xml version="1.0" encoding="utf-8"?>
<!-- Generator: Adobe Illustrator 25.2.0, SVG Export Plug-In . SVG Version: 6.00 Build 0)  -->
<svg version="1.1" id="Layer_1" xmlns="http://www.w3.org/2000/svg" xmlns:xlink="http://www.w3.org/1999/xlink" x="0px" y="0px"
	 viewBox="0 0 1366 768" style="enable-background:new 0 0 1366 768;" xml:space="preserve">
<style type="text/css">
	.st0{fill:url(#SVGID_1_);stroke:#000000;stroke-miterlimit:10;}
	.st1{fill:url(#SVGID_2_);}
	.st2{fill:url(#SVGID_3_);}
	.st3{fill:url(#SVGID_4_);}
	.st4{opacity:0.4;}
	.st5{fill:none;stroke:#000000;stroke-width:5;stroke-miterlimit:10;}
</style>
<linearGradient id="SVGID_1_" gradientUnits="userSpaceOnUse" x1="1266.9673" y1="650.075" x2="34.2714" y2="87.2403" gradientTransform="matrix(1 0 0 -1 0 768)">
	<stop  offset="0" style="stop-color:#BF009A"/>
	<stop  offset="1" style="stop-color:#FFCB0A"/>
</linearGradient>
<path class="st0" d="M1366,768.1V3.5c0-1.9-1.2-3.5-2.7-3.5H2.7C1.2,0,0,1.5,0,3.5v764.6"/>
<g id="Layer_5">
	
		<linearGradient id="SVGID_2_" gradientUnits="userSpaceOnUse" x1="1152.75" y1="567.95" x2="1366" y2="567.95" gradientTransform="matrix(1 0 0 -1 0 768)">
		<stop  offset="0" style="stop-color:#BF009A"/>
		<stop  offset="1" style="stop-color:#FFCB0A"/>
	</linearGradient>
	<path class="st1" d="M1366,0h-61.2c-40.6,0-77.6,23-95.1,59.1l-46.6,96.1c-13.8,28.4-13.8,61.4,0,89.7l46.6,96.1
		c17.5,36.1,54.5,59.1,95.1,59.1h61.2"/>
	
		<linearGradient id="SVGID_3_" gradientUnits="userSpaceOnUse" x1="1152.75" y1="199.95" x2="1366" y2="199.95" gradientTransform="matrix(1 0 0 -1 0 768)">
		<stop  offset="0" style="stop-color:#BF009A"/>
		<stop  offset="1" style="stop-color:#FFCB0A"/>
	</linearGradient>
	<path class="st2" d="M1366,368h-61.2c-40.6,0-77.6,23-95.1,59.1l-46.6,96.1c-13.8,28.4-13.8,61.4,0,89.7l46.6,96.1
		c17.5,36.1,54.5,59.1,95.1,59.1h61.2"/>
</g>
<g id="Layer_2_1_">
	
		<linearGradient id="SVGID_4_" gradientUnits="userSpaceOnUse" x1="155.554" y1="442.6862" x2="-60.135" y2="344.2051" gradientTransform="matrix(1 0 0 -1 0 768)">
		<stop  offset="0" style="stop-color:#BF009A"/>
		<stop  offset="1" style="stop-color:#FFCB0A"/>
	</linearGradient>
	<path class="st3" d="M0,220.5c92.5,0,167.5,75,167.5,167.5S92.5,555.5,0,555.5"/>
</g>
<g id="Layer_4" class="st4">
	<g>
		<line class="st5" x1="1367" y1="527.5" x2="1226" y2="527.5"/>
		<line class="st5" x1="1367" y1="559.5" x2="892" y2="559.5"/>
		<line class="st5" x1="1367" y1="440.5" x2="1147" y2="440.5"/>
		<line class="st5" x1="1367" y1="400.5" x2="892" y2="400.5"/>
		<line class="st5" x1="1367" y1="278.5" x2="1032" y2="278.5"/>
		<line class="st5" x1="1367" y1="224.5" x2="903" y2="224.5"/>
		<line class="st5" x1="1367" y1="174.5" x2="1085" y2="174.5"/>
	</g>
	<g>
		<line class="st5" x1="1367" y1="527.5" x2="1226" y2="527.5"/>
		<line class="st5" x1="1367" y1="559.5" x2="892" y2="559.5"/>
		<line class="st5" x1="1367" y1="440.5" x2="1147" y2="440.5"/>
		<line class="st5" x1="1367" y1="400.5" x2="892" y2="400.5"/>
		<line class="st5" x1="1367" y1="278.5" x2="1032" y2="278.5"/>
		<line class="st5" x1="1367" y1="224.5" x2="903" y2="224.5"/>
		<line class="st5" x1="1367" y1="174.5" x2="1085" y2="174.5"/>
	</g>
</g>
</svg>
